<mxfile host="app.diagrams.net" modified="2023-08-04T18:57:57.145Z" agent="Mozilla/5.0 (Windows NT 10.0; Win64; x64) AppleWebKit/537.36 (KHTML, like Gecko) Chrome/115.0.0.0 Safari/537.36" version="21.6.6" etag="6K3W8TKew6sRnf3XdCGa" type="github">
  <diagram name="第 1 页" id="eo0tf4YsxfA6RHm2_p4z">
    <mxGraphModel>
      <root>
        <mxCell id="0" />
        <mxCell id="1" parent="0" />
      </root>
    </mxGraphModel>
  </diagram>
</mxfile>
